<svg xmlns="http://www.w3.org/2000/svg" viewBox="0 0 1180 990" role="img" aria-label="Dimensioned Resort arrival floor plan" style="font-family:Arial,sans-serif"><rect width="1180" height="990" fill="#fcfbf7"/><text x="395" y="31" font-size="17" fill="#283f32" text-anchor="middle" font-weight="600">LAGOON HOUSE / RESORT ARRIVAL</text><text x="395" y="54" font-size="12" fill="#435149" text-anchor="middle" >30 × 40 ft site · clear internal room dimensions · 1 square = 1 metre</text><rect x="86.108" y="100.44999999999999" width="557.784" height="22.570000000000007" fill="#e7e8e2" stroke="none" stroke-width="0" /><text x="365" y="115.69999999999999" font-size="13" fill="#435149" text-anchor="middle" >NORTH ROAD</text><rect x="86.108" y="128.144" width="557.784" height="743.712" fill="#f0f0e4" stroke="#839181" stroke-width="1.2" /><line x1="121" y1="128.144" x2="121" y2="871.856" stroke="#d9ddd2" stroke-width="0.6" /><line x1="182" y1="128.144" x2="182" y2="871.856" stroke="#d9ddd2" stroke-width="0.6" /><line x1="243" y1="128.144" x2="243" y2="871.856" stroke="#d9ddd2" stroke-width="0.6" /><line x1="304" y1="128.144" x2="304" y2="871.856" stroke="#d9ddd2" stroke-width="0.6" /><line x1="365" y1="128.144" x2="365" y2="871.856" stroke="#d9ddd2" stroke-width="0.6" /><line x1="426" y1="128.144" x2="426" y2="871.856" stroke="#d9ddd2" stroke-width="0.6" /><line x1="487" y1="128.144" x2="487" y2="871.856" stroke="#d9ddd2" stroke-width="0.6" /><line x1="548" y1="128.144" x2="548" y2="871.856" stroke="#d9ddd2" stroke-width="0.6" /><line x1="609" y1="128.144" x2="609" y2="871.856" stroke="#d9ddd2" stroke-width="0.6" /><line x1="86.108" y1="134" x2="643.892" y2="134" stroke="#d9ddd2" stroke-width="0.6" /><line x1="86.108" y1="195" x2="643.892" y2="195" stroke="#d9ddd2" stroke-width="0.6" /><line x1="86.108" y1="256" x2="643.892" y2="256" stroke="#d9ddd2" stroke-width="0.6" /><line x1="86.108" y1="317" x2="643.892" y2="317" stroke="#d9ddd2" stroke-width="0.6" /><line x1="86.108" y1="378" x2="643.892" y2="378" stroke="#d9ddd2" stroke-width="0.6" /><line x1="86.108" y1="439" x2="643.892" y2="439" stroke="#d9ddd2" stroke-width="0.6" /><line x1="86.108" y1="500" x2="643.892" y2="500" stroke="#d9ddd2" stroke-width="0.6" /><line x1="86.108" y1="561" x2="643.892" y2="561" stroke="#d9ddd2" stroke-width="0.6" /><line x1="86.108" y1="622" x2="643.892" y2="622" stroke="#d9ddd2" stroke-width="0.6" /><line x1="86.108" y1="683" x2="643.892" y2="683" stroke="#d9ddd2" stroke-width="0.6" /><line x1="86.108" y1="744" x2="643.892" y2="744" stroke="#d9ddd2" stroke-width="0.6" /><line x1="86.108" y1="805" x2="643.892" y2="805" stroke="#d9ddd2" stroke-width="0.6" /><line x1="86.108" y1="866" x2="643.892" y2="866" stroke="#d9ddd2" stroke-width="0.6" /><g data-room="parking" tabindex="0" role="button" aria-label="Two-car parking 5.20 × 5.20 m" style="cursor:pointer"><title>Two-car parking — 5.20 × 5.20 m — 27.04 m²</title><polygon points="121,164.5 438.2,164.5 438.2,481.7 121,481.7" fill="#e6e6e0" stroke="#afb8a7" stroke-width="0.65"/></g><g data-room="lagoon" tabindex="0" role="button" aria-label="Lagoon water 2.72 × 5.67 m" style="cursor:pointer"><title>Lagoon water — 2.72 × 5.67 m — 12.91 m²</title><polygon points="463.82,172.43 467.8347412109375,168.6598693847656 472.67691406250003,165.692001953125 478.2375048828125,163.4589343261719 484.4075,161.893203125 491.0778857421875,160.92734497070313 498.1396484375,160.49389648437506 505.4837744140625,160.52539428710935 513.00125,160.95437500000003 520.5830615234374,161.7133752441406 528.1201953125001,162.734931640625 535.5036376953125,163.9515808105469 542.624375,165.29585937500002 549.3733935546875,166.7003039550782 555.6416796875,168.09745117187504 561.3202197265625,169.4198376464845 566.3,170.59999999999997 570.7507214355469,171.77614135742186 574.922802734375,173.12756835937495 578.8283068847657,174.64847290039063 582.479296875,176.33304687499998 585.8878356933594,178.17548217773435 589.0659863281251,180.169970703125 592.0258117675781,182.31070434570307 594.779375,184.59187499999996 597.3387390136718,187.00767456054683 599.7159667968749,189.55229492187493 601.9231213378905,192.21992797851556 603.972265625,195.00476562499995 605.8754626464844,197.9009997558593 607.644775390625,200.90282226562488 609.2922668457031,204.00442504882795 610.83,207.2 612.2012341308593,210.5504577636719 613.3504199218751,214.10717773437506 614.2914074707032,217.8500549316406 615.038046875,221.758984375 615.6041882324218,225.81386108398436 616.003681640625,229.994580078125 616.2503771972656,234.28103637695312 616.358125,238.65312499999993 616.3407751464844,243.09074096679694 616.212177734375,247.57377929687502 615.9861828613282,252.08213500976566 615.676640625,256.595703125 615.2974011230469,261.0943786621094 614.862314453125,265.55805664062507 614.3852307128906,269.96663208007817 613.88,274.29999999999995 613.2084191894531,278.56932983398434 612.253134765625,282.806044921875 611.0592712402344,287.02042114257813 609.671953125,291.222734375 608.1363049316407,295.42326049804683 606.497451171875,299.63227539062495 604.8005163574219,303.8600549316406 603.090625,308.116875 601.4129016113282,312.41301147460933 599.812470703125,316.75874023437495 598.3344567871094,321.1643371582031 597.023984375,325.64007812499995 595.9261779785156,330.19623901367186 595.0861621093751,334.84309570312496 594.5490612792969,339.5909240722656 594.36,344.45000000000005 594.5825695800781,349.53104980468754 595.211259765625,354.9033984375 596.1875427246093,360.5152197265625 597.452890625,366.3146875 598.9487756347656,372.24997558593753 600.616669921875,378.26925781250003 602.3980456542969,384.3207080078125 604.234375,390.3525 606.0671301269531,396.3128076171875 607.837783203125,402.1498046875 609.4878063964844,407.8116650390625 610.958671875,413.2465625 612.1918518066407,418.4026708984375 613.1288183593751,423.2281640625 613.711043701172,427.6712158203125 613.88,431.68 613.7496899414062,435.2378369140625 613.4713476562499,438.3923828125 613.0422924804687,441.18831542968746 612.4598437500001,443.6703125 611.7213208007813,445.8830517578125 610.8240429687501,447.8712109375 609.7653295898438,449.6794677734375 608.5425,451.3525 607.1528735351562,452.9349853515625 605.59376953125,454.4716015625 603.8625073242188,456.0070263671875 601.9564062500001,457.5859375 599.8727856445313,459.25301269531246 597.6089648437501,461.0529296875 595.1622631835938,463.03036621093753 592.53,465.23 589.6322021484375,467.703955078125 586.4133203125,470.438828125 582.9073095703125,473.381005859375 579.1481249999999,476.476875 575.1697216796874,479.67282226562503 571.0060546875,482.915234375 566.6910791015625,486.150498046875 562.25875,489.325 557.7430224609375,492.385126953125 553.1778515625,495.277265625 548.5971923828125,497.947802734375 544.035,500.343125 539.5252294921875,502.409619140625 535.1018359375,504.093671875 530.7987744140626,505.341669921875 526.65,506.1 522.4972045898437,506.332919921875 518.18505859375,506.076171875 513.7519848632812,505.383369140625 509.23640625,504.308125 504.6767456054688,502.904052734375 500.11142578125,501.224765625 495.5788696289062,499.323876953125 491.1175,497.255 486.76573974609374,495.071748046875 482.56201171875,492.827734375 478.54473876953125,490.576572265625 474.75234374999997,488.371875 471.22324951171873,486.267255859375 467.99587890624997,484.316328125 465.1086547851562,482.572705078125 462.6,481.09 460.44750122070315,479.89613647460936 458.590322265625,478.949638671875 457.0092517089844,478.2000207519531 455.685078125,477.596796875 454.59859008789067,477.08948120117185 453.730576171875,476.627587890625 453.06182495117184,476.16063110351564 452.573125,475.638125 452.2452648925781,475.00958374023435 452.059033203125,474.224521484375 451.9952185058594,473.2324523925781 452.034609375,471.982890625 452.15799438476563,470.4253503417969 452.34616210937503,468.509345703125 452.57990112304685,466.1843908691406 452.84000000000003,463.4 453.28119262695316,460.13591918945315 454.03915039062497,456.435634765625 455.0660681152344,452.3442712402344 456.314140625,447.90695312500003 457.7355627441406,443.16880493164064 459.282529296875,438.174951171875 460.90723510742185,432.97051635742184 462.561875,427.600625 464.19864379882813,422.11040161132814 465.769736328125,416.544970703125 467.2273474121094,410.9494567871094 468.523671875,405.36898437499997 469.61090454101566,399.84867797851564 470.4412402343751,394.433662109375 470.9668737792969,389.1690612792969 471.14,384.1 470.92428100585937,379.2409240722656 470.348310546875,374.550283203125 469.4616809082031,369.98920776367186 468.313984375,365.518828125 466.9548132324219,361.10027465820315 465.433759765625,356.694677734375 463.8004162597656,352.2631677246094 462.104375,347.766875 460.39522827148437,343.16692993164065 458.72256835937503,338.424462890625 457.1359875488281,333.5006042480469 455.685078125,328.35648437500004 454.4194323730469,322.9532336425782 453.388642578125,317.251982421875 452.6423010253906,311.2138610839844 452.23,304.79999999999995 451.9502429199219,297.7454602050781 451.597958984375,289.900869140625 451.2173791503906,281.40070678710936 450.852734375,272.379453125 450.5482556152344,262.9715881347656 450.348173828125,253.311591796875 450.2967199707031,243.53394409179685 450.438125,233.77312499999994 450.8166198730469,224.16361450195313 451.476435546875,214.83989257812493 452.4618029785156,205.93643920898438 453.816953125,197.5877343749999 455.5861169433594,189.92825805664057 457.81352539062505,183.0924902343749 460.54340942382817,177.21491088867174" fill="#a2d4d3" stroke="#afb8a7" stroke-width="0.65"/></g><g data-room="arrival" tabindex="0" role="button" aria-label="Arrival lounge 2.75 × 1.80 m" style="cursor:pointer"><title>Arrival lounge — 2.75 × 1.80 m — 4.95 m²</title><polygon points="117.95000000000002,594.55 285.7,594.55 285.7,704.35 117.95000000000002,704.35" fill="#dfE8d8" stroke="#afb8a7" stroke-width="0.65"/></g><g data-room="services" tabindex="0" role="button" aria-label="Pool plant / services 1.13 × 1.60 m" style="cursor:pointer"><title>Pool plant / services — 1.13 × 1.60 m — 1.81 m²</title><polygon points="117.95000000000002,723.87 186.88,723.87 186.88,821.47 117.95000000000002,821.47" fill="#e6e0d3" stroke="#afb8a7" stroke-width="0.65"/></g><g data-room="approach" tabindex="0" role="button" aria-label="Dry approach 1.20 × 3.93 m" style="cursor:pointer"><title>Dry approach — 1.20 × 3.93 m — 4.72 m²</title><polygon points="299.12,581.74 372.32,581.74 372.32,821.47 299.12,821.47" fill="#f3f1ea" stroke="#afb8a7" stroke-width="0.65"/></g><g data-room="lift0" tabindex="0" role="button" aria-label="Lift shaft 1.60 × 1.60 m" style="cursor:pointer"><title>Lift shaft — 1.60 × 1.60 m — 2.56 m²</title><polygon points="194.20000000000002,723.87 291.8,723.87 291.8,821.47 194.20000000000002,821.47" fill="#d7e0df" stroke="#afb8a7" stroke-width="0.65"/></g><g data-room="stair0" tabindex="0" role="button" aria-label="Sculptural entrance stair 3.81 × 3.81 m" style="cursor:pointer"><title>Sculptural entrance stair — 3.81 × 3.81 m — 14.52 m²</title><polygon points="379.64,589.06 612.05,589.06 612.05,821.47 379.64,821.47" fill="#e8e6e0" stroke="#afb8a7" stroke-width="0.65"/></g><rect x="194.20000000000002" y="723.87" width="97.6" height="97.59999999999998" fill="#d9e1df" stroke="#657a72" stroke-width="1.4" /><rect x="201.52" y="731.19" width="82.96" height="82.95999999999997" fill="none" stroke="#82948c" stroke-width="0.8" /><rect x="525.125" y="589.06" width="86.92499999999998" height="17.69" fill="#f1e8d6" stroke="#8c8476" stroke-width="0.85" /><text x="575.45" y="600.905" font-size="9" fill="#8e8069" text-anchor="middle" >1</text><rect x="529.7" y="606.75" width="82.34999999999998" height="17.69" fill="#f1e8d6" stroke="#8c8476" stroke-width="0.85" /><text x="575.45" y="618.595" font-size="9" fill="#8e8069" text-anchor="middle" >2</text><rect x="534.275" y="624.44" width="77.77499999999999" height="17.69" fill="#f1e8d6" stroke="#8c8476" stroke-width="0.85" /><text x="575.45" y="636.285" font-size="9" fill="#8e8069" text-anchor="middle" >3</text><rect x="538.85" y="642.13" width="73.19999999999999" height="17.69" fill="#f1e8d6" stroke="#8c8476" stroke-width="0.85" /><text x="575.45" y="653.9749999999999" font-size="9" fill="#8e8069" text-anchor="middle" >4</text><rect x="538.85" y="659.8199999999999" width="73.19999999999999" height="17.69" fill="#f1e8d6" stroke="#8c8476" stroke-width="0.85" /><text x="575.45" y="671.665" font-size="9" fill="#8e8069" text-anchor="middle" >5</text><rect x="538.85" y="677.51" width="73.19999999999999" height="17.689999999999976" fill="#f1e8d6" stroke="#8c8476" stroke-width="0.85" /><text x="575.45" y="689.355" font-size="9" fill="#8e8069" text-anchor="middle" >6</text><rect x="538.85" y="695.2" width="73.19999999999999" height="17.69" fill="#f1e8d6" stroke="#8c8476" stroke-width="0.85" /><text x="575.45" y="707.045" font-size="9" fill="#8e8069" text-anchor="middle" >7</text><rect x="538.85" y="712.89" width="73.19999999999999" height="17.69" fill="#f1e8d6" stroke="#8c8476" stroke-width="0.85" /><text x="575.45" y="724.735" font-size="9" fill="#8e8069" text-anchor="middle" >8</text><rect x="538.85" y="730.5799999999999" width="73.19999999999999" height="17.69000000000003" fill="#f1e8d6" stroke="#8c8476" stroke-width="0.85" /><text x="575.45" y="742.425" font-size="9" fill="#8e8069" text-anchor="middle" >9</text><rect x="538.85" y="748.27" width="73.19999999999999" height="73.19999999999996" fill="#e7ddc9" stroke="#8c8476" stroke-width="1" /><rect x="521.16" y="748.27" width="17.69" height="73.19999999999996" fill="#f1e8d6" stroke="#8c8476" stroke-width="0.85" /><text x="530.005" y="787.87" font-size="9" fill="#8e8069" text-anchor="middle" >11</text><rect x="503.47" y="748.27" width="17.69" height="73.19999999999996" fill="#f1e8d6" stroke="#8c8476" stroke-width="0.85" /><text x="512.315" y="787.87" font-size="9" fill="#8e8069" text-anchor="middle" >12</text><rect x="485.78000000000003" y="748.27" width="17.689999999999987" height="73.19999999999996" fill="#f1e8d6" stroke="#8c8476" stroke-width="0.85" /><text x="494.625" y="787.87" font-size="9" fill="#8e8069" text-anchor="middle" >13</text><rect x="468.09000000000003" y="748.27" width="17.69" height="73.19999999999996" fill="#f1e8d6" stroke="#8c8476" stroke-width="0.85" /><text x="476.935" y="787.87" font-size="9" fill="#8e8069" text-anchor="middle" >14</text><rect x="450.4" y="748.27" width="17.69" height="73.19999999999996" fill="#f1e8d6" stroke="#8c8476" stroke-width="0.85" /><text x="459.245" y="787.87" font-size="9" fill="#8e8069" text-anchor="middle" >15</text><rect x="432.71000000000004" y="748.27" width="17.689999999999987" height="73.19999999999996" fill="#f1e8d6" stroke="#8c8476" stroke-width="0.85" /><text x="441.555" y="787.87" font-size="9" fill="#8e8069" text-anchor="middle" >16</text><rect x="415.02000000000004" y="748.27" width="17.69" height="73.19999999999996" fill="#f1e8d6" stroke="#8c8476" stroke-width="0.85" /><text x="423.865" y="787.87" font-size="9" fill="#8e8069" text-anchor="middle" >17</text><rect x="397.33000000000004" y="748.27" width="17.69" height="73.19999999999996" fill="#f1e8d6" stroke="#8c8476" stroke-width="0.85" /><text x="406.175" y="787.87" font-size="9" fill="#8e8069" text-anchor="middle" >18</text><rect x="379.64" y="748.27" width="17.69" height="73.19999999999996" fill="#f1e8d6" stroke="#8c8476" stroke-width="0.85" /><text x="388.485" y="787.87" font-size="9" fill="#8e8069" text-anchor="middle" >19</text><path d="M 406.48 774.5 L 392.45 784.87 L 406.48 795.24" fill="none" stroke="#546d61" stroke-width="1.5"/><path d="M 575.45 601.26 L 575.45 784.87 L 392.45 784.87" fill="none" stroke="#546d61" stroke-width="1.5"/><text x="487" y="690.3199999999999" font-size="11" fill="#435149" text-anchor="middle" >1.20 m flights</text><text x="487" y="707.4" font-size="11" fill="#435149" text-anchor="middle" >20 RISERS</text><text x="487" y="723.26" font-size="11" fill="#435149" text-anchor="middle" >165 mm each</text><text x="487" y="739.12" font-size="11" fill="#435149" text-anchor="middle" >UP 3.30 m</text><g transform="translate(200.29999999999998 323.1) rotate(0)" fill="#fffdf7" stroke="#7b8278" stroke-width=".85" pointer-events="none"><rect x="-56.730000000000004" y="-141.82500000000002" width="113.46000000000001" height="283.65000000000003" rx="3" fill="#ccd2ce"/><rect x="-45.38400000000001" y="-36.6" width="90.76800000000001" height="97.60000000000001" rx="3" fill="#667f7a"/><rect x="-47.6532" y="-122" width="95.3064" height="73.2" rx="3" fill="#dedfda"/></g><g transform="translate(358.9 323.1) rotate(0)" fill="#fffdf7" stroke="#7b8278" stroke-width=".85" pointer-events="none"><rect x="-56.730000000000004" y="-141.82500000000002" width="113.46000000000001" height="283.65000000000003" rx="3" fill="#ccd2ce"/><rect x="-45.38400000000001" y="-36.6" width="90.76800000000001" height="97.60000000000001" rx="3" fill="#667f7a"/><rect x="-47.6532" y="-122" width="95.3064" height="73.2" rx="3" fill="#dedfda"/></g><g transform="translate(218.6 649.45) rotate(0)" fill="#fffdf7" stroke="#7b8278" stroke-width=".85" pointer-events="none"><rect x="-50.324999999999996" y="-29.89" width="100.64999999999999" height="59.78" rx="3" fill="#fffdf7"/><rect x="-50.324999999999996" y="-29.89" width="100.64999999999999" height="12.200000000000001" rx="3" fill="#ddd6c7"/><rect x="-45.445" y="-15.860000000000001" width="37.82" height="39.04" rx="3" fill="#f4efe3"/><rect x="-1.5250000000000012" y="-15.860000000000001" width="37.82" height="39.04" rx="3" fill="#f4efe3"/><rect x="42.394999999999996" y="-15.860000000000001" width="37.82" height="39.04" rx="3" fill="#f4efe3"/></g><g transform="translate(153.94 772.67) rotate(0)" fill="#fffdf7" stroke="#7b8278" stroke-width=".85" pointer-events="none"><rect x="-22.875" y="-36.6" width="45.75" height="73.2" rx="3" fill="#fffdf7"/></g><g pointer-events="none"><circle cx="279.6" cy="310.1" r="11" fill="#40574b"/><text x="279.6" y="314.1" font-size="11" fill="#ffffff" text-anchor="middle" >1</text><rect x="242.32500000000002" y="326.1" width="74.55000000000001" height="17" rx="2" fill="#fcfbf7" fill-opacity=".94"/><text x="279.6" y="338.1" font-size="11" fill="#435149" text-anchor="middle" >5.20 × 5.20</text></g><g pointer-events="none"><circle cx="533.3274224853516" cy="320.4134082031251" r="11" fill="#40574b"/><text x="533.3274224853516" y="324.4134082031251" font-size="11" fill="#ffffff" text-anchor="middle" >2</text><rect x="496.0524224853516" y="336.4134082031251" width="74.55000000000001" height="17" rx="2" fill="#fcfbf7" fill-opacity=".94"/><text x="533.3274224853516" y="348.4134082031251" font-size="11" fill="#435149" text-anchor="middle" >2.72 × 5.67</text></g><g pointer-events="none"><circle cx="201.82500000000002" cy="636.45" r="11" fill="#40574b"/><text x="201.82500000000002" y="640.45" font-size="11" fill="#ffffff" text-anchor="middle" >3</text><rect x="164.55" y="652.45" width="74.55000000000001" height="17" rx="2" fill="#fcfbf7" fill-opacity=".94"/><text x="201.82500000000002" y="664.45" font-size="11" fill="#435149" text-anchor="middle" >2.75 × 1.80</text></g><g pointer-events="none"><circle cx="152.41500000000002" cy="759.67" r="11" fill="#40574b"/><text x="152.41500000000002" y="763.67" font-size="11" fill="#ffffff" text-anchor="middle" >4</text><rect x="115.14000000000001" y="775.67" width="74.55000000000001" height="17" rx="2" fill="#fcfbf7" fill-opacity=".94"/><text x="152.41500000000002" y="787.67" font-size="11" fill="#435149" text-anchor="middle" >1.13 × 1.60</text></g><g pointer-events="none"><circle cx="335.72" cy="688.605" r="11" fill="#40574b"/><text x="335.72" y="692.605" font-size="11" fill="#ffffff" text-anchor="middle" >5</text><rect x="298.44500000000005" y="704.605" width="74.55000000000001" height="17" rx="2" fill="#fcfbf7" fill-opacity=".94"/><text x="335.72" y="716.605" font-size="11" fill="#435149" text-anchor="middle" >1.20 × 3.93</text></g><g pointer-events="none"><circle cx="243" cy="759.67" r="11" fill="#40574b"/><text x="243" y="763.67" font-size="11" fill="#ffffff" text-anchor="middle" >6</text><rect x="205.725" y="775.67" width="74.55000000000001" height="17" rx="2" fill="#fcfbf7" fill-opacity=".94"/><text x="243" y="787.67" font-size="11" fill="#435149" text-anchor="middle" >1.60 × 1.60</text></g><g pointer-events="none"><circle cx="469.92" cy="633.4" r="11" fill="#40574b"/><text x="469.92" y="637.4" font-size="11" fill="#ffffff" text-anchor="middle" >7</text><rect x="432.645" y="649.4" width="74.55000000000001" height="17" rx="2" fill="#fcfbf7" fill-opacity=".94"/><text x="469.92" y="661.4" font-size="11" fill="#435149" text-anchor="middle" >3.81 × 3.81</text></g><line x1="86.108" y1="79.09999999999997" x2="643.892" y2="79.09999999999997" stroke="#485f56" stroke-width="1" /><line x1="82.108" y1="75.09999999999997" x2="90.108" y2="83.09999999999997" stroke="#6f7e74" stroke-width="1" /><line x1="639.892" y1="75.09999999999997" x2="647.892" y2="83.09999999999997" stroke="#6f7e74" stroke-width="1" /><text x="365" y="71.09999999999997" font-size="13" fill="#33483e" text-anchor="middle" >9.144 m / 30 ft</text><line x1="45.360000000000014" y1="128.144" x2="45.360000000000014" y2="871.856" stroke="#485f56" stroke-width="1" /><line x1="41.360000000000014" y1="124.144" x2="49.360000000000014" y2="132.144" stroke="#6f7e74" stroke-width="1" /><line x1="41.360000000000014" y1="867.856" x2="49.360000000000014" y2="875.856" stroke="#6f7e74" stroke-width="1" /><text x="33.360000000000014" y="500" font-size="13" fill="#33483e" text-anchor="middle" transform="rotate(-90 33.360000000000014 500)">12.192 m / 40 ft</text><text x="715" y="96" font-size="17" fill="#40574b" text-anchor="middle" >N</text><line x1="715" y1="133" x2="715" y2="109" stroke="#40574b" stroke-width="2" /><path d="M 710 116 L 715 106 L 720 116" fill="none" stroke="#40574b" stroke-width="2"/><text x="390" y="932" font-size="12" fill="#435149" text-anchor="middle" >Walls: 200 mm outside / 120 mm partitions · Clear ceiling: 3.02 m</text><text x="390" y="953" font-size="11" fill="#435149" text-anchor="middle" >Concept only. Reserved plot margins are illustrative, not approved setbacks.</text><line x1="120" y1="973" x2="242" y2="973" stroke="#40574b" stroke-width="3" /><text x="120" y="965" font-size="10" fill="#435149" text-anchor="middle" >0</text><text x="181" y="965" font-size="10" fill="#435149" text-anchor="middle" >1 m</text><text x="242" y="965" font-size="10" fill="#435149" text-anchor="middle" >2 m</text><line x1="800" y1="28" x2="800" y2="965" stroke="#d8ddd0" stroke-width="1" /><text x="990" y="43" font-size="17" fill="#283f32" text-anchor="middle" font-weight="600">ROOM SCHEDULE</text><text x="990" y="67" font-size="12" fill="#435149" text-anchor="middle" >Clear internal sizes · numbered on plan</text><circle cx="827" cy="113" r="10" fill="#40574b"/><text x="827" y="117" font-size="11" fill="#ffffff" text-anchor="middle" >1</text><text x="848" y="117" font-size="13" fill="#2d4135"  text-anchor="start">Two-car parking</text><text x="848" y="137" font-size="12" fill="#566450"  text-anchor="start">5.20 × 5.20 m</text><text x="1150" y="137" font-size="12" fill="#566450"  text-anchor="end">27.04 m²</text><line x1="817" y1="149" x2="1154" y2="149" stroke="#dce0d4" stroke-width="0.7" /><circle cx="827" cy="165" r="10" fill="#40574b"/><text x="827" y="169" font-size="11" fill="#ffffff" text-anchor="middle" >2</text><text x="848" y="169" font-size="13" fill="#2d4135"  text-anchor="start">Lagoon water</text><text x="848" y="189" font-size="12" fill="#566450"  text-anchor="start">2.72 × 5.67 m</text><text x="1150" y="189" font-size="12" fill="#566450"  text-anchor="end">12.91 m²</text><line x1="817" y1="201" x2="1154" y2="201" stroke="#dce0d4" stroke-width="0.7" /><circle cx="827" cy="217" r="10" fill="#40574b"/><text x="827" y="221" font-size="11" fill="#ffffff" text-anchor="middle" >3</text><text x="848" y="221" font-size="13" fill="#2d4135"  text-anchor="start">Arrival lounge</text><text x="848" y="241" font-size="12" fill="#566450"  text-anchor="start">2.75 × 1.80 m</text><text x="1150" y="241" font-size="12" fill="#566450"  text-anchor="end">4.95 m²</text><line x1="817" y1="253" x2="1154" y2="253" stroke="#dce0d4" stroke-width="0.7" /><circle cx="827" cy="269" r="10" fill="#40574b"/><text x="827" y="273" font-size="11" fill="#ffffff" text-anchor="middle" >4</text><text x="848" y="273" font-size="13" fill="#2d4135"  text-anchor="start">Pool plant / services</text><text x="848" y="293" font-size="12" fill="#566450"  text-anchor="start">1.13 × 1.60 m</text><text x="1150" y="293" font-size="12" fill="#566450"  text-anchor="end">1.81 m²</text><line x1="817" y1="305" x2="1154" y2="305" stroke="#dce0d4" stroke-width="0.7" /><circle cx="827" cy="321" r="10" fill="#40574b"/><text x="827" y="325" font-size="11" fill="#ffffff" text-anchor="middle" >5</text><text x="848" y="325" font-size="13" fill="#2d4135"  text-anchor="start">Dry approach</text><text x="848" y="345" font-size="12" fill="#566450"  text-anchor="start">1.20 × 3.93 m</text><text x="1150" y="345" font-size="12" fill="#566450"  text-anchor="end">4.72 m²</text><line x1="817" y1="357" x2="1154" y2="357" stroke="#dce0d4" stroke-width="0.7" /><circle cx="827" cy="373" r="10" fill="#40574b"/><text x="827" y="377" font-size="11" fill="#ffffff" text-anchor="middle" >6</text><text x="848" y="377" font-size="13" fill="#2d4135"  text-anchor="start">Lift shaft</text><text x="848" y="397" font-size="12" fill="#566450"  text-anchor="start">1.60 × 1.60 m</text><text x="1150" y="397" font-size="12" fill="#566450"  text-anchor="end">2.56 m²</text><line x1="817" y1="409" x2="1154" y2="409" stroke="#dce0d4" stroke-width="0.7" /><circle cx="827" cy="425" r="10" fill="#40574b"/><text x="827" y="429" font-size="11" fill="#ffffff" text-anchor="middle" >7</text><text x="848" y="429" font-size="13" fill="#2d4135"  text-anchor="start">Sculptural entrance stair</text><text x="848" y="449" font-size="12" fill="#566450"  text-anchor="start">3.81 × 3.81 m</text><text x="1150" y="449" font-size="12" fill="#566450"  text-anchor="end">14.52 m²</text><line x1="817" y1="461" x2="1154" y2="461" stroke="#dce0d4" stroke-width="0.7" /><text x="990" y="893" font-size="12" fill="#435149" text-anchor="middle" >Lift / stair areas are overall footprints.</text><text x="990" y="915" font-size="12" fill="#435149" text-anchor="middle" >Irregular rooms use bounding dimensions</text><text x="990" y="933" font-size="12" fill="#435149" text-anchor="middle" >and their actual polygon area.</text></svg>